name rise45.9887peak57.8056fall74.9286.mot
datacolumns 19
datarows 12
range 4.72165100000000 4.73998700000000
endheader
time	ground_force1_vx	ground_force1_vy	ground_force1_vz	ground_force1_px	ground_force1_py	ground_force1_pz	ground_force2_vx	ground_force2_vy	ground_force2_vz	ground_force2_px	ground_force2_py	ground_force2_pz	ground_torque1_x	ground_torque1_y	ground_torque1_z	ground_torque2_x	ground_torque2_y	ground_torque2_z	
4.72165100000000	9.30813100000000	700.17069500000002	39.25360400000000	0.24353500000000	0.00000000000000	0.11123500000000	0.00000000000000	0.00000000000000	0.00000000000000	0.00000000000000	0.00000000000000	0.00000000000000	0.00000000000000	18.05735500000000	0.00000000000000	0.00000000000000	0.00000000000000	0.00000000000000	
4.72331300000000	9.00115600000000	700.85315000000003	39.21168700000000	0.24332500000000	0.00000000000000	0.11119400000000	0.00000000000000	0.00000000000000	0.00000000000000	0.00000000000000	0.00000000000000	0.00000000000000	0.00000000000000	18.11618900000000	0.00000000000000	0.00000000000000	0.00000000000000	0.00000000000000	
4.72498500000000	8.68445900000000	701.59039099999995	39.17357900000000	0.24310700000000	0.00000000000000	0.11115300000000	0.00000000000000	0.00000000000000	0.00000000000000	0.00000000000000	0.00000000000000	0.00000000000000	0.00000000000000	18.17868400000000	0.00000000000000	0.00000000000000	0.00000000000000	0.00000000000000	
4.72664700000000	8.35767500000000	702.37998800000003	39.13908300000000	0.24287700000000	0.00000000000000	0.11111300000000	0.00000000000000	0.00000000000000	0.00000000000000	0.00000000000000	0.00000000000000	0.00000000000000	0.00000000000000	18.24460100000000	0.00000000000000	0.00000000000000	0.00000000000000	0.00000000000000	
4.72831400000000	8.02048100000000	703.21951000000001	39.10801500000000	0.24263300000000	0.00000000000000	0.11107200000000	0.00000000000000	0.00000000000000	0.00000000000000	0.00000000000000	0.00000000000000	0.00000000000000	0.00000000000000	18.31370500000000	0.00000000000000	0.00000000000000	0.00000000000000	0.00000000000000	
4.72998400000000	7.67259100000000	704.10652300000004	39.08020300000000	0.24237000000000	0.00000000000000	0.11103300000000	0.00000000000000	0.00000000000000	0.00000000000000	0.00000000000000	0.00000000000000	0.00000000000000	0.00000000000000	18.38576300000000	0.00000000000000	0.00000000000000	0.00000000000000	0.00000000000000	
4.73165300000000	7.31376200000000	705.03860299999997	39.05549000000000	0.24208500000000	0.00000000000000	0.11099400000000	0.00000000000000	0.00000000000000	0.00000000000000	0.00000000000000	0.00000000000000	0.00000000000000	0.00000000000000	18.46055000000000	0.00000000000000	0.00000000000000	0.00000000000000	0.00000000000000	
4.73331600000000	6.94379000000000	706.01333899999997	39.03373300000000	0.24177600000000	0.00000000000000	0.11095600000000	0.00000000000000	0.00000000000000	0.00000000000000	0.00000000000000	0.00000000000000	0.00000000000000	0.00000000000000	18.53784600000000	0.00000000000000	0.00000000000000	0.00000000000000	0.00000000000000	
4.73498300000000	6.56251600000000	707.02834099999995	39.01480300000000	0.24143900000000	0.00000000000000	0.11092000000000	0.00000000000000	0.00000000000000	0.00000000000000	0.00000000000000	0.00000000000000	0.00000000000000	0.00000000000000	18.61743800000000	0.00000000000000	0.00000000000000	0.00000000000000	0.00000000000000	
4.73665100000000	6.16982500000000	708.08124199999997	38.99858400000000	0.24107300000000	0.00000000000000	0.11088500000000	0.00000000000000	0.00000000000000	0.00000000000000	0.00000000000000	0.00000000000000	0.00000000000000	0.00000000000000	18.69911800000000	0.00000000000000	0.00000000000000	0.00000000000000	0.00000000000000	
4.73831800000000	5.76564400000000	709.16971000000001	38.98497700000000	0.24067300000000	0.00000000000000	0.11085100000000	0.00000000000000	0.00000000000000	0.00000000000000	0.00000000000000	0.00000000000000	0.00000000000000	0.00000000000000	18.78268700000000	0.00000000000000	0.00000000000000	0.00000000000000	0.00000000000000	
4.73998700000000	5.34994700000000	710.29144699999995	38.97389500000000	0.24024000000000	0.00000000000000	0.11081900000000	0.00000000000000	0.00000000000000	0.00000000000000	0.00000000000000	0.00000000000000	0.00000000000000	0.00000000000000	18.86795400000000	0.00000000000000	0.00000000000000	0.00000000000000	0.00000000000000	
